<svg xmlns="http://www.w3.org/2000/svg" viewBox="0 0 64 64" role="img" aria-label="Flyt">
  <rect x="2" y="2" width="60" height="60" rx="13" fill="#FBFBFA" stroke="#E8E7E3" stroke-width="2"/>
  <path d="M29 29C23 19 12 20 11 29C10 38 19 43 29 37ZM35 29C41 19 52 20 53 29C54 38 45 43 35 37Z" fill="#E8F2F8" stroke="#252523" stroke-width="2.3" stroke-linejoin="round"/>
  <circle cx="32" cy="24" r="7" fill="#252523"/><rect x="27" y="30" width="10" height="16" rx="5" fill="#252523"/>
  <path d="M32 43C26 43 27 53 32 56C37 53 38 43 32 43Z" fill="#252523"/>
  <path d="M28 35L20 45M36 35L44 45" stroke="#252523" stroke-width="2.3" stroke-linecap="round"/>
</svg>