<svg xmlns="http://www.w3.org/2000/svg" viewBox="0 0 512 512" role="img" aria-labelledby="title desc">
  <title id="title">Flyt mark</title>
  <desc id="desc">A restrained ink drawing of a fruit fly and measured trajectory.</desc>
  <rect x="16" y="16" width="480" height="480" rx="92" fill="#FBFBFA" stroke="#E8E7E3" stroke-width="4"/>
  <path d="M82 390C105 329 91 267 132 211C157 176 187 158 220 153" fill="none" stroke="#A3A19B" stroke-width="7" stroke-linecap="round" stroke-dasharray="2 19"/>
  <circle cx="82" cy="390" r="10" fill="#346538"/><circle cx="132" cy="211" r="7" fill="#246486"/>
  <path d="M229 224C188 157 117 160 103 225C91 281 145 324 224 283Z" fill="#E8F2F8" stroke="#246486" stroke-width="7" stroke-linejoin="round"/>
  <path d="M283 224C324 157 395 160 409 225C421 281 367 324 288 283Z" fill="#EDF3EC" stroke="#346538" stroke-width="7" stroke-linejoin="round"/>
  <path d="M216 249C173 224 138 226 114 244M296 249C339 224 374 226 398 244" fill="none" stroke="#A3A19B" stroke-width="4" stroke-linecap="round"/>
  <path d="M230 166L208 121M282 166L304 121" stroke="#252523" stroke-width="8" stroke-linecap="round"/>
  <circle cx="205" cy="115" r="8" fill="#252523"/><circle cx="307" cy="115" r="8" fill="#252523"/>
  <circle cx="256" cy="184" r="46" fill="#252523"/><rect x="220" y="216" width="72" height="100" rx="34" fill="#252523"/>
  <path d="M256 296C215 296 211 346 225 404C232 433 246 448 256 448C266 448 280 433 287 404C301 346 297 296 256 296Z" fill="#252523"/>
  <path d="M229 351H283M228 385H284M236 416H276" stroke="#FBFBFA" stroke-opacity=".72" stroke-width="6" stroke-linecap="round"/>
  <path d="M224 282L169 337M288 282L343 337M226 309L184 386M286 309L328 386" stroke="#252523" stroke-width="8" stroke-linecap="round"/>
  <circle cx="242" cy="178" r="4" fill="#FBFBFA"/><circle cx="270" cy="178" r="4" fill="#FBFBFA"/>
</svg>